<svg width="116" height="142" viewBox="0 0 116 142" fill="none" xmlns="http://www.w3.org/2000/svg">
<rect width="116" height="142" fill="#E10012"/>
<g clip-path="url(#clip0_2_409)">
<path d="M28.565 114.46L27.415 113.76C26.695 113.32 26.185 112.89 25.875 112.46C25.575 112.04 25.415 111.55 25.415 110.99C25.415 110.16 25.705 109.49 26.275 108.97C26.855 108.45 27.605 108.19 28.525 108.19C29.445 108.19 30.215 108.44 30.945 108.93V110.64C30.185 109.91 29.365 109.54 28.495 109.54C28.005 109.54 27.595 109.65 27.285 109.88C26.965 110.11 26.805 110.4 26.805 110.76C26.805 111.08 26.925 111.37 27.155 111.65C27.385 111.93 27.765 112.21 28.285 112.52L29.435 113.2C30.725 113.97 31.365 114.95 31.365 116.13C31.365 116.98 31.085 117.66 30.515 118.19C29.945 118.72 29.215 118.98 28.305 118.98C27.265 118.98 26.315 118.66 25.455 118.02V116.1C26.275 117.13 27.215 117.65 28.285 117.65C28.755 117.65 29.155 117.52 29.465 117.26C29.775 117 29.935 116.67 29.935 116.27C29.935 115.63 29.475 115.02 28.545 114.44L28.565 114.46Z" fill="white"/>
<path d="M33.2756 109.01C33.5056 109.01 33.6956 109.09 33.8556 109.24C34.0156 109.4 34.0956 109.59 34.0956 109.81C34.0956 110.03 34.0156 110.22 33.8556 110.38C33.6956 110.54 33.5056 110.62 33.2756 110.62C33.0656 110.62 32.8756 110.54 32.7156 110.37C32.5556 110.21 32.4756 110.02 32.4756 109.8C32.4756 109.58 32.5556 109.4 32.7156 109.24C32.8756 109.08 33.0656 108.99 33.2756 108.99V109.01ZM32.5956 111.93H33.9656V118.87H32.5956V111.93Z" fill="white"/>
<path d="M36.9144 111.93V112.81C37.5244 112.13 38.2244 111.79 39.0044 111.79C39.4344 111.79 39.8444 111.9 40.2144 112.13C40.5844 112.35 40.8744 112.66 41.0644 113.05C41.2544 113.44 41.3544 114.06 41.3544 114.9V118.87H39.9844V114.91C39.9844 114.2 39.8744 113.69 39.6644 113.39C39.4444 113.09 39.0844 112.93 38.5744 112.93C37.9244 112.93 37.3744 113.26 36.9244 113.9V118.86H35.5244V111.92H36.9244L36.9144 111.93Z" fill="white"/>
<path d="M48.0754 117.26V118.62C47.3854 118.88 46.7154 119.01 46.0554 119.01C44.9654 119.01 44.1054 118.69 43.4554 118.04C42.8054 117.4 42.4854 116.53 42.4854 115.45C42.4854 114.37 42.7954 113.48 43.4254 112.81C44.0554 112.14 44.8854 111.81 45.9054 111.81C46.2654 111.81 46.5854 111.84 46.8654 111.91C47.1454 111.98 47.4954 112.1 47.9154 112.29V113.75C47.2254 113.31 46.5754 113.08 45.9854 113.08C45.3954 113.08 44.8554 113.3 44.4654 113.73C44.0654 114.17 43.8654 114.72 43.8654 115.4C43.8654 116.11 44.0854 116.67 44.5154 117.09C44.9454 117.51 45.5254 117.72 46.2554 117.72C46.7854 117.72 47.3854 117.57 48.0754 117.26Z" fill="white"/>
<path d="M55.0559 115.53H50.1759C50.2159 116.19 50.4359 116.72 50.8459 117.12C51.2559 117.51 51.7859 117.71 52.4359 117.71C53.3459 117.71 54.1759 117.43 54.9459 116.86V118.2C54.5259 118.48 54.1059 118.68 53.6859 118.8C53.2759 118.92 52.7859 118.98 52.2259 118.98C51.4659 118.98 50.8459 118.82 50.3659 118.5C49.8959 118.18 49.5159 117.76 49.2259 117.22C48.9459 116.68 48.7959 116.06 48.7959 115.36C48.7959 114.3 49.0959 113.44 49.6959 112.78C50.2959 112.12 51.0759 111.79 52.0259 111.79C52.9759 111.79 53.6859 112.11 54.2259 112.76C54.7759 113.4 55.0459 114.27 55.0459 115.35V115.52L55.0559 115.53ZM50.2059 114.7H53.7059C53.6659 114.15 53.5059 113.73 53.2159 113.43C52.9259 113.13 52.5359 112.98 52.0359 112.98C51.5359 112.98 51.1359 113.13 50.8259 113.43C50.5159 113.73 50.3059 114.15 50.2059 114.7Z" fill="white"/>
<path d="M63.2256 108.33H64.7356V118.88H63.2256V108.33Z" fill="white"/>
<path d="M70.1843 119L69.2543 117.91C70.0343 117.42 70.7143 116.82 71.3043 116.12C71.8843 115.42 72.2743 114.7 72.4743 113.96C71.9943 114.26 71.4343 114.41 70.7943 114.41C69.9843 114.41 69.2943 114.11 68.7243 113.51C68.1443 112.91 67.8643 112.19 67.8643 111.35C67.8643 110.51 68.1743 109.73 68.7843 109.12C69.3943 108.51 70.1443 108.21 71.0343 108.21C72.0343 108.21 72.8443 108.57 73.4843 109.29C74.1243 110.01 74.4343 110.93 74.4343 112.06C74.4343 113.34 74.0343 114.63 73.2443 115.94C72.4443 117.25 71.4343 118.27 70.2043 119.02L70.1843 119ZM72.7643 112.45C72.8243 112.05 72.8543 111.79 72.8543 111.66C72.8543 111.05 72.6843 110.55 72.3443 110.17C72.0043 109.78 71.5643 109.59 71.0343 109.59C70.5443 109.59 70.1443 109.75 69.8243 110.08C69.5043 110.41 69.3443 110.82 69.3443 111.32C69.3443 111.78 69.5143 112.17 69.8643 112.51C70.2143 112.84 70.6243 113.01 71.1143 113.01C71.6743 113.01 72.2343 112.82 72.7643 112.45Z" fill="white"/>
<path d="M78.6258 117.42H82.6358V118.88H75.9658V118.77L76.5958 118.02C77.5858 116.79 78.3758 115.75 78.9658 114.89C79.5558 114.03 79.9358 113.39 80.1158 112.95C80.2958 112.51 80.3858 112.08 80.3858 111.65C80.3858 111.06 80.2158 110.58 79.8758 110.22C79.5358 109.86 79.0858 109.68 78.5358 109.68C78.1158 109.68 77.6958 109.8 77.2858 110.05C76.8758 110.3 76.5058 110.65 76.1758 111.1V109.18C76.9958 108.51 77.8458 108.18 78.7158 108.18C79.6358 108.18 80.3958 108.49 80.9958 109.1C81.5958 109.71 81.8858 110.49 81.8858 111.44C81.8858 111.86 81.8158 112.31 81.6658 112.8C81.5158 113.28 81.2558 113.83 80.8758 114.46C80.4958 115.09 79.8558 115.94 78.9558 117.02L78.6358 117.4L78.6258 117.42Z" fill="white"/>
<path d="M88.5649 108.199H89.1849V114.119H90.3649V115.399H89.1849V118.879H87.7149V115.399H83.2549V114.749L88.5649 108.199ZM87.7149 114.119V111.059L85.2749 114.119H87.7149Z" fill="white"/>
<path d="M90.3449 52.4499C90.2849 51.6899 89.9849 50.9599 89.4849 50.3799C88.1749 48.8599 85.2449 45.5599 81.1649 41.4699C77.0749 37.3799 73.7649 34.4499 72.2549 33.1499C71.6749 32.6499 70.9549 32.3499 70.1849 32.2899C68.2449 32.1399 63.9849 31.8799 58.0049 31.8799C52.0249 31.8799 47.7649 32.1399 45.8249 32.2899C45.0649 32.3499 44.3349 32.6499 43.7549 33.1499C42.2449 34.4599 38.9349 37.3899 34.8449 41.4699C30.6149 45.6999 27.7749 48.9099 26.5149 50.3799C26.0149 50.9599 25.7249 51.6799 25.6649 52.4399C25.5149 54.3799 25.2549 58.6399 25.2549 64.6299C25.2549 70.6199 25.5249 74.8199 25.6649 76.8199C25.7249 77.5799 26.0149 78.3099 26.5149 78.8899C27.7849 80.3699 30.6149 83.5699 34.8449 87.7899C38.9349 91.8799 42.2449 94.8099 43.7549 96.1099C44.3349 96.6099 45.0549 96.7699 45.8249 96.8299C47.7649 96.9799 52.0249 97.2399 58.0049 97.2399C63.9849 97.2399 68.2449 96.9799 70.1849 96.8299C70.9449 96.7699 71.6749 96.6099 72.2549 96.1099C73.7649 94.7999 77.0749 91.8699 81.1649 87.7899C85.3949 83.5599 88.2249 80.3599 89.4949 78.8899C89.9949 78.3099 90.2949 77.5799 90.3449 76.8199C90.4949 74.8299 90.7549 70.4099 90.7549 64.6299C90.7549 58.8499 90.4949 54.3899 90.3449 52.4499ZM87.7649 75.9499C87.7149 76.5999 87.4649 77.2099 87.0449 77.6999C85.9049 79.0299 83.2749 82.0099 79.3249 85.9599C75.4949 89.7899 72.4149 92.5099 71.0549 93.6799C70.5649 94.0999 69.9549 94.3599 69.3049 94.4099C67.5649 94.5499 63.5949 94.7899 58.0049 94.7899C52.4149 94.7899 48.4449 94.5399 46.7049 94.4099C46.0549 94.3599 45.4449 94.1099 44.9549 93.6799C43.5949 92.5099 40.5049 89.7799 36.6849 85.9599C32.7249 81.9999 30.1049 79.0299 28.9649 77.6999C28.5449 77.2099 28.2849 76.5999 28.2449 75.9499C28.1149 74.1599 27.8549 70.0499 27.8549 64.6399C27.8549 59.2299 28.1049 55.0599 28.2349 53.3199C28.2849 52.6799 28.5349 52.0699 28.9549 51.5799C30.0849 50.2599 32.7149 47.2699 36.6849 43.3099C40.5149 39.4799 43.5949 36.7599 44.9549 35.5899C45.4449 35.1699 46.0549 34.9099 46.7049 34.8599C48.4449 34.7199 52.4149 34.4799 58.0049 34.4799C63.5949 34.4799 67.5649 34.7299 69.3049 34.8599C69.9549 34.9099 70.5649 35.1599 71.0549 35.5899C72.4149 36.7599 75.4949 39.4899 79.3249 43.3099C83.1549 47.1399 85.8749 50.2199 87.0449 51.5799C87.4649 52.0699 87.7249 52.6799 87.7749 53.3299C87.9149 55.0699 88.1549 59.0399 88.1549 64.6299C88.1549 70.2199 87.9049 74.1499 87.7649 75.9399V75.9499Z" fill="white"/>
<path d="M84.1349 58.4602C84.0849 56.2702 83.9149 54.3602 83.8549 53.9302C83.7549 53.7502 83.5249 53.4902 83.3749 53.3302C81.4949 51.2002 79.6049 49.1502 77.0349 46.5902C72.0349 41.6102 69.3549 39.2602 68.6849 38.7902C68.1949 38.7402 67.2749 38.6602 64.8149 38.5502C62.8449 38.4602 60.3549 38.4102 60.1549 38.4202C60.1549 38.8602 60.1149 71.7002 60.1449 90.3802C60.1449 90.7202 60.1549 90.8302 60.1549 90.8302C60.1549 90.8302 65.9149 90.8802 68.7049 90.4902C70.6149 88.8902 74.2349 85.4702 76.8749 82.8302C79.6949 79.9802 82.1149 77.3902 82.7249 76.6602C82.9749 76.3602 83.5549 75.7402 83.8649 75.3102C83.9049 74.9502 83.9349 74.6502 83.9749 73.9702C84.1749 70.6702 84.2249 64.7502 84.2249 64.5602C83.9649 64.5402 75.3349 64.5602 75.1449 64.5602C75.1449 64.7102 75.1549 69.0902 75.1549 69.1202C75.2549 69.1202 79.3949 69.1202 79.5449 69.1202C79.5449 69.2002 79.4249 72.8602 79.3349 73.4702C79.0049 73.9302 78.4849 74.4102 77.8949 75.0602C77.2549 75.7702 76.3449 76.7302 74.4749 78.6502C72.1349 81.0502 68.4849 84.4702 66.8549 85.9102C66.8749 85.6902 66.8149 43.7002 66.8349 43.2802C67.2649 43.6402 68.2849 44.5702 68.5749 44.8402C70.5549 46.7002 72.6349 48.6102 74.3149 50.3702C76.7749 52.9502 79.2449 55.6302 79.3549 55.8102C79.3849 56.0002 79.4949 58.2402 79.4849 58.4302C79.6549 58.4502 83.9549 58.4302 84.1249 58.4302" fill="white"/>
<path d="M49.1247 90.6196C49.8147 90.6596 52.6547 90.8096 55.2547 90.8196C55.4847 90.8196 55.7647 90.8196 55.8947 90.8196C55.8947 90.5796 55.8947 90.4596 55.8947 90.2396C55.8947 71.0796 55.8947 38.9296 55.8947 38.9296C55.8947 38.9296 55.8847 38.7396 55.8747 38.4196C55.6947 38.4196 54.3247 38.3896 52.5847 38.4696C50.8947 38.5496 49.2847 38.6096 49.1247 38.6196C49.0647 38.7696 46.9447 43.0896 44.7847 48.4696C41.9547 55.4996 40.7847 58.9896 40.7847 58.9896C40.7847 58.9896 40.6847 58.8596 39.8047 57.3596C38.3447 54.8696 36.7947 52.1296 35.9147 50.8496C35.7647 50.6296 35.4947 50.2396 35.4947 50.2396C35.4947 50.2396 35.4447 50.2596 35.2147 50.4796C34.7147 50.9496 32.7047 53.2196 32.2847 53.7096C32.0847 53.9496 32.1347 53.9296 32.1247 53.9996C32.0847 54.4596 31.8447 58.1196 31.7947 63.7496C31.7447 69.5396 31.8747 72.5796 32.1447 75.3196C32.7747 76.1196 33.2547 76.6996 34.6747 78.1996C35.4747 79.0396 36.9447 80.5796 36.9647 80.5796C36.9647 80.5796 36.7747 77.9996 36.7647 77.5396C36.5947 73.9396 36.4447 70.6096 36.4147 66.4596C36.4047 66.0196 36.4147 61.4596 36.4147 61.4596L38.5747 65.2296L41.6447 70.6696L41.7447 70.7596C42.8347 67.8696 44.2147 63.9496 45.6547 60.1696C46.7847 57.1996 47.9747 54.3996 49.0147 51.7296C49.0847 51.6596 49.1547 51.4096 49.1547 51.4096C49.1547 51.4096 49.1947 56.6296 49.1547 57.5796C49.1547 72.6096 49.1547 82.4296 49.1647 90.6096" fill="white"/>
</g>
<defs>
<clipPath id="clip0_2_409">
<rect width="65.51" height="87.12" fill="white" transform="translate(25.2451 31.8799)"/>
</clipPath>
</defs>
</svg>
